<svg width="20" height="20" viewBox="0 0 20 20" fill="none" xmlns="http://www.w3.org/2000/svg">
<path d="M9.99998 10.2084C9.63331 10.2084 9.26665 10.1167 8.93331 9.94175L3.50831 7.01675C3.01665 6.75008 2.70831 6.22508 2.70831 5.64175C2.70831 5.05841 3.01665 4.53341 3.50831 4.26675L8.93331 1.34175C9.59998 0.983415 10.4 0.983415 11.0583 1.34175L16.4833 4.26675C16.975 4.53341 17.2833 5.05841 17.2833 5.64175C17.2833 6.22508 16.975 6.75008 16.4833 7.01675L11.0583 9.94175C10.7333 10.1251 10.3666 10.2084 9.99998 10.2084ZM9.99998 2.31675C9.84165 2.31675 9.67498 2.35841 9.52498 2.44175L4.10831 5.35841C3.96665 5.43341 3.95831 5.59175 3.95831 5.64175C3.95831 5.69175 3.96665 5.85008 4.10831 5.91675L9.53331 8.84175C9.83331 9.00008 10.175 9.00008 10.475 8.84175L15.9 5.91675C16.0333 5.84175 16.05 5.68341 16.05 5.64175C16.05 5.59175 16.0416 5.43341 15.9 5.36675L10.475 2.44175C10.325 2.35841 10.1583 2.31675 9.99998 2.31675Z" fill="#5A27D5"/>
<path d="M8.15002 18.9333C7.91669 18.9333 7.67502 18.875 7.45835 18.7666L2.40835 16.25C1.56669 15.825 1.04169 14.975 1.04169 14.0333V9.26664C1.04169 8.72497 1.31669 8.2333 1.77502 7.94997C2.24169 7.66664 2.80002 7.64164 3.28335 7.8833L8.33335 10.4C9.17502 10.825 9.70002 11.6666 9.70002 12.6166V17.3833C9.70002 17.925 9.42502 18.4166 8.96669 18.7C8.71669 18.8583 8.43335 18.9333 8.15002 18.9333ZM2.59169 8.96664C2.52502 8.96664 2.46669 8.99164 2.43335 9.0083C2.38335 9.04164 2.29169 9.11664 2.29169 9.26664V14.0333C2.29169 14.5 2.55002 14.925 2.96669 15.1333L8.00835 17.6583C8.14169 17.725 8.25002 17.675 8.30002 17.65C8.35002 17.6166 8.44169 17.5416 8.44169 17.3916V12.625C8.44169 12.1583 8.18335 11.7333 7.76669 11.525L2.72502 8.99997C2.67502 8.97497 2.63335 8.96664 2.59169 8.96664Z" fill="#5A27D5"/>
<path d="M11.85 18.9333C11.5667 18.9333 11.2833 18.8583 11.0333 18.7C10.575 18.4167 10.3 17.925 10.3 17.3833V12.6167C10.3 11.675 10.825 10.825 11.6667 10.4L16.7083 7.875C17.1917 7.63334 17.7583 7.65834 18.2167 7.94167C18.675 8.225 18.95 8.71667 18.95 9.25834V14.025C18.95 14.9667 18.425 15.8167 17.5833 16.2417L12.5417 18.7667C12.325 18.8833 12.0833 18.9333 11.85 18.9333ZM17.4083 8.96667C17.3667 8.96667 17.325 8.975 17.275 9L12.2333 11.525C11.8167 11.7333 11.5583 12.15 11.5583 12.625V17.3917C11.5583 17.5417 11.65 17.6167 11.7 17.65C11.75 17.6833 11.8583 17.725 11.9917 17.6583L17.0333 15.1333C17.45 14.925 17.7083 14.5 17.7083 14.0333V9.26667C17.7083 9.11667 17.6167 9.04167 17.5667 9.00834C17.5333 8.99167 17.475 8.96667 17.4083 8.96667Z" fill="#5A27D5"/>
</svg>
