<svg width="375" height="144" viewBox="0 0 375 144" fill="none" xmlns="http://www.w3.org/2000/svg">
<rect width="375" height="72" fill="white"/>
<g filter="url(#filter0_d_585_18100)">
<rect x="16" y="18" width="36" height="36" rx="18" fill="white"/>
<path d="M35.0767 30.3636V42H33.6676V31.8409H33.5994L30.7585 33.7273V32.2955L33.6676 30.3636H35.0767Z" fill="#5A27D5"/>
<rect x="17" y="19" width="34" height="34" rx="17" stroke="#5A27D5" stroke-width="2"/>
</g>
<rect x="33" y="54" width="2" height="18" fill="#E5E5E5"/>
<path d="M77.5753 34.1293H76.0241C75.9645 33.7978 75.8535 33.5062 75.6911 33.2543C75.5286 33.0024 75.3298 32.7886 75.0945 32.6129C74.8591 32.4373 74.5956 32.3047 74.304 32.2152C74.0156 32.1257 73.709 32.081 73.3842 32.081C72.7976 32.081 72.2723 32.2285 71.8082 32.5234C71.3475 32.8184 70.983 33.2509 70.7145 33.821C70.4493 34.3911 70.3168 35.0871 70.3168 35.9091C70.3168 36.7377 70.4493 37.437 70.7145 38.0071C70.983 38.5772 71.3492 39.008 71.8132 39.2997C72.2772 39.5914 72.7992 39.7372 73.3793 39.7372C73.7008 39.7372 74.0057 39.6941 74.294 39.608C74.5857 39.5185 74.8492 39.3875 75.0845 39.2152C75.3198 39.0429 75.5187 38.8324 75.6811 38.5838C75.8468 38.3319 75.9612 38.0436 76.0241 37.7188L77.5753 37.7237C77.4924 38.2242 77.3317 38.6849 77.093 39.1058C76.8577 39.5234 76.5545 39.8847 76.1832 40.1896C75.8153 40.4912 75.3944 40.7249 74.9205 40.8906C74.4465 41.0563 73.9295 41.1392 73.3693 41.1392C72.4877 41.1392 71.7022 40.9304 71.0128 40.5128C70.3234 40.0919 69.7798 39.4903 69.3821 38.7081C68.9877 37.9259 68.7905 36.9929 68.7905 35.9091C68.7905 34.822 68.9893 33.889 69.3871 33.1101C69.7848 32.3279 70.3284 31.728 71.0178 31.3104C71.7071 30.8894 72.491 30.679 73.3693 30.679C73.9096 30.679 74.4134 30.7569 74.8807 30.9126C75.3513 31.0651 75.7739 31.2905 76.1484 31.5888C76.523 31.8838 76.8329 32.245 77.0781 32.6726C77.3234 33.0968 77.4891 33.5824 77.5753 34.1293ZM79.2942 41V33.3636H80.731V34.5767H80.8105C80.9498 34.1657 81.195 33.8426 81.5463 33.6072C81.901 33.3686 82.302 33.2493 82.7495 33.2493C82.8423 33.2493 82.9516 33.2526 83.0776 33.2592C83.2069 33.2659 83.3079 33.2741 83.3809 33.2841V34.706C83.3212 34.6894 83.2151 34.6712 83.0627 34.6513C82.9102 34.6281 82.7578 34.6165 82.6053 34.6165C82.254 34.6165 81.9408 34.6911 81.6657 34.8402C81.3939 34.986 81.1784 35.1899 81.0194 35.4517C80.8603 35.7102 80.7807 36.0052 80.7807 36.3366V41H79.2942ZM87.685 41.1541C86.9326 41.1541 86.2847 40.9934 85.7411 40.6719C85.2009 40.3471 84.7833 39.8913 84.4883 39.3047C84.1966 38.7147 84.0508 38.0237 84.0508 37.2315C84.0508 36.4493 84.1966 35.7599 84.4883 35.1634C84.7833 34.5668 85.1942 34.1011 85.7212 33.7663C86.2515 33.4316 86.8713 33.2642 87.5806 33.2642C88.0115 33.2642 88.4291 33.3355 88.8335 33.478C89.2378 33.6205 89.6007 33.8442 89.9222 34.1491C90.2437 34.4541 90.4973 34.8501 90.6829 35.3374C90.8685 35.8213 90.9613 36.4096 90.9613 37.1023V37.6293H84.891V36.5156H89.5046C89.5046 36.1245 89.4251 35.7782 89.266 35.4766C89.1069 35.1716 88.8832 34.9313 88.5948 34.7557C88.3098 34.58 87.975 34.4922 87.5906 34.4922C87.1729 34.4922 86.8084 34.5949 86.4968 34.8004C86.1886 35.0026 85.9499 35.2678 85.7809 35.5959C85.6152 35.9207 85.5323 36.2737 85.5323 36.6548V37.5249C85.5323 38.0353 85.6218 38.4695 85.8008 38.8274C85.9831 39.1854 86.2366 39.4588 86.5614 39.6477C86.8862 39.8333 87.2657 39.9261 87.6999 39.9261C87.9817 39.9261 88.2385 39.8864 88.4705 39.8068C88.7025 39.724 88.9031 39.6013 89.0721 39.4389C89.2411 39.2765 89.3704 39.076 89.4599 38.8374L90.8668 39.0909C90.7541 39.5052 90.552 39.8681 90.2603 40.1797C89.9719 40.4879 89.609 40.7282 89.1715 40.9006C88.7373 41.0696 88.2418 41.1541 87.685 41.1541ZM94.8329 41.169C94.349 41.169 93.9115 41.0795 93.5204 40.9006C93.1293 40.7183 92.8194 40.4548 92.5907 40.1101C92.3654 39.7654 92.2527 39.3428 92.2527 38.8423C92.2527 38.4115 92.3355 38.0568 92.5012 37.7784C92.667 37.5 92.8907 37.2796 93.1724 37.1172C93.4541 36.9548 93.769 36.8321 94.117 36.7493C94.465 36.6664 94.8197 36.6035 95.1809 36.5604C95.6383 36.5073 96.0095 36.4643 96.2946 36.4311C96.5796 36.3946 96.7868 36.3366 96.916 36.2571C97.0453 36.1776 97.1099 36.0483 97.1099 35.8693V35.8345C97.1099 35.4003 96.9873 35.0639 96.742 34.8253C96.5001 34.5866 96.1388 34.4673 95.6582 34.4673C95.1577 34.4673 94.7633 34.5784 94.475 34.8004C94.1899 35.0192 93.9927 35.2628 93.8833 35.5312L92.4863 35.2131C92.652 34.7491 92.894 34.3745 93.2122 34.0895C93.5337 33.8011 93.9032 33.5923 94.3208 33.4631C94.7385 33.3305 95.1776 33.2642 95.6383 33.2642C95.9432 33.2642 96.2664 33.3007 96.6078 33.3736C96.9525 33.4432 97.274 33.5724 97.5723 33.7614C97.8739 33.9503 98.1208 34.2204 98.313 34.5717C98.5053 34.9197 98.6014 35.3722 98.6014 35.929V41H97.1497V39.956H97.09C96.9939 40.1482 96.8497 40.3371 96.6575 40.5227C96.4653 40.7083 96.2183 40.8625 95.9167 40.9851C95.6151 41.1077 95.2538 41.169 94.8329 41.169ZM95.1561 39.9759C95.5671 39.9759 95.9184 39.8946 96.21 39.7322C96.505 39.5698 96.7288 39.3577 96.8812 39.0959C97.037 38.8307 97.1149 38.5473 97.1149 38.2457V37.2614C97.0618 37.3144 96.9591 37.3641 96.8066 37.4105C96.6575 37.4536 96.4868 37.4917 96.2946 37.5249C96.1023 37.5547 95.9151 37.5829 95.7328 37.6094C95.5505 37.6326 95.398 37.6525 95.2754 37.669C94.987 37.7055 94.7235 37.7668 94.4849 37.853C94.2496 37.9392 94.0607 38.0634 93.9181 38.2259C93.7789 38.3849 93.7093 38.5971 93.7093 38.8622C93.7093 39.2301 93.8452 39.5085 94.117 39.6974C94.3888 39.883 94.7351 39.9759 95.1561 39.9759ZM104.146 33.3636V34.5568H99.9748V33.3636H104.146ZM101.093 31.5341H102.58V38.7578C102.58 39.0462 102.623 39.2633 102.709 39.4091C102.795 39.5516 102.906 39.6494 103.042 39.7024C103.181 39.7521 103.332 39.777 103.495 39.777C103.614 39.777 103.718 39.7687 103.808 39.7521C103.897 39.7356 103.967 39.7223 104.017 39.7124L104.285 40.9403C104.199 40.9735 104.076 41.0066 103.917 41.0398C103.758 41.0762 103.559 41.0961 103.321 41.0994C102.93 41.1061 102.565 41.0365 102.227 40.8906C101.889 40.7448 101.615 40.5194 101.407 40.2145C101.198 39.9096 101.093 39.5268 101.093 39.0661V31.5341ZM108.999 41.1541C108.247 41.1541 107.599 40.9934 107.056 40.6719C106.515 40.3471 106.098 39.8913 105.803 39.3047C105.511 38.7147 105.365 38.0237 105.365 37.2315C105.365 36.4493 105.511 35.7599 105.803 35.1634C106.098 34.5668 106.509 34.1011 107.036 33.7663C107.566 33.4316 108.186 33.2642 108.895 33.2642C109.326 33.2642 109.744 33.3355 110.148 33.478C110.552 33.6205 110.915 33.8442 111.237 34.1491C111.558 34.4541 111.812 34.8501 111.997 35.3374C112.183 35.8213 112.276 36.4096 112.276 37.1023V37.6293H106.205V36.5156H110.819C110.819 36.1245 110.74 35.7782 110.58 35.4766C110.421 35.1716 110.198 34.9313 109.909 34.7557C109.624 34.58 109.289 34.4922 108.905 34.4922C108.487 34.4922 108.123 34.5949 107.811 34.8004C107.503 35.0026 107.264 35.2678 107.095 35.5959C106.93 35.9207 106.847 36.2737 106.847 36.6548V37.5249C106.847 38.0353 106.936 38.4695 107.115 38.8274C107.298 39.1854 107.551 39.4588 107.876 39.6477C108.201 39.8333 108.58 39.9261 109.014 39.9261C109.296 39.9261 109.553 39.8864 109.785 39.8068C110.017 39.724 110.218 39.6013 110.387 39.4389C110.556 39.2765 110.685 39.076 110.774 38.8374L112.181 39.0909C112.069 39.5052 111.866 39.8681 111.575 40.1797C111.286 40.4879 110.923 40.7282 110.486 40.9006C110.052 41.0696 109.556 41.1541 108.999 41.1541ZM124.163 33.3636L121.394 41H119.803L117.029 33.3636H118.624L120.558 39.2401H120.638L122.567 33.3636H124.163ZM128.591 41.1541C127.839 41.1541 127.191 40.9934 126.647 40.6719C126.107 40.3471 125.69 39.8913 125.395 39.3047C125.103 38.7147 124.957 38.0237 124.957 37.2315C124.957 36.4493 125.103 35.7599 125.395 35.1634C125.69 34.5668 126.1 34.1011 126.627 33.7663C127.158 33.4316 127.778 33.2642 128.487 33.2642C128.918 33.2642 129.335 33.3355 129.74 33.478C130.144 33.6205 130.507 33.8442 130.828 34.1491C131.15 34.4541 131.404 34.8501 131.589 35.3374C131.775 35.8213 131.868 36.4096 131.868 37.1023V37.6293H125.797V36.5156H130.411C130.411 36.1245 130.331 35.7782 130.172 35.4766C130.013 35.1716 129.789 34.9313 129.501 34.7557C129.216 34.58 128.881 34.4922 128.497 34.4922C128.079 34.4922 127.715 34.5949 127.403 34.8004C127.095 35.0026 126.856 35.2678 126.687 35.5959C126.521 35.9207 126.439 36.2737 126.439 36.6548V37.5249C126.439 38.0353 126.528 38.4695 126.707 38.8274C126.889 39.1854 127.143 39.4588 127.468 39.6477C127.792 39.8333 128.172 39.9261 128.606 39.9261C128.888 39.9261 129.145 39.8864 129.377 39.8068C129.609 39.724 129.809 39.6013 129.978 39.4389C130.147 39.2765 130.277 39.076 130.366 38.8374L131.773 39.0909C131.66 39.5052 131.458 39.8681 131.167 40.1797C130.878 40.4879 130.515 40.7282 130.078 40.9006C129.644 41.0696 129.148 41.1541 128.591 41.1541ZM135.003 36.4659V41H133.517V33.3636H134.944V34.6065H135.038C135.214 34.2022 135.489 33.8774 135.863 33.6321C136.241 33.3868 136.717 33.2642 137.29 33.2642C137.811 33.2642 138.266 33.3736 138.657 33.5923C139.049 33.8078 139.352 34.1293 139.567 34.5568C139.783 34.9844 139.89 35.513 139.89 36.1428V41H138.404V36.3217C138.404 35.7682 138.26 35.3357 137.971 35.0241C137.683 34.7093 137.287 34.5518 136.783 34.5518C136.439 34.5518 136.132 34.6264 135.863 34.7756C135.598 34.9247 135.388 35.1435 135.232 35.4318C135.08 35.7169 135.003 36.0616 135.003 36.4659ZM145.449 33.3636V34.5568H141.278V33.3636H145.449ZM142.396 31.5341H143.883V38.7578C143.883 39.0462 143.926 39.2633 144.012 39.4091C144.098 39.5516 144.209 39.6494 144.345 39.7024C144.484 39.7521 144.635 39.777 144.797 39.777C144.917 39.777 145.021 39.7687 145.111 39.7521C145.2 39.7356 145.27 39.7223 145.319 39.7124L145.588 40.9403C145.502 40.9735 145.379 41.0066 145.22 41.0398C145.061 41.0762 144.862 41.0961 144.623 41.0994C144.232 41.1061 143.868 41.0365 143.53 40.8906C143.192 40.7448 142.918 40.5194 142.709 40.2145C142.501 39.9096 142.396 39.5268 142.396 39.0661V31.5341ZM151.93 37.8331V33.3636H153.422V41H151.96V39.6776H151.881C151.705 40.0852 151.423 40.425 151.036 40.6967C150.651 40.9652 150.172 41.0994 149.599 41.0994C149.108 41.0994 148.674 40.9917 148.296 40.7763C147.922 40.5575 147.627 40.2344 147.411 39.8068C147.199 39.3793 147.093 38.8506 147.093 38.2209V33.3636H148.58V38.0419C148.58 38.5623 148.724 38.9766 149.012 39.2848C149.3 39.593 149.675 39.7472 150.136 39.7472C150.414 39.7472 150.691 39.6776 150.966 39.5384C151.244 39.3991 151.475 39.1887 151.657 38.907C151.843 38.6252 151.934 38.2673 151.93 37.8331ZM155.419 41V33.3636H156.856V34.5767H156.936C157.075 34.1657 157.32 33.8426 157.671 33.6072C158.026 33.3686 158.427 33.2493 158.874 33.2493C158.967 33.2493 159.077 33.2526 159.203 33.2592C159.332 33.2659 159.433 33.2741 159.506 33.2841V34.706C159.446 34.6894 159.34 34.6712 159.188 34.6513C159.035 34.6281 158.883 34.6165 158.73 34.6165C158.379 34.6165 158.066 34.6911 157.791 34.8402C157.519 34.986 157.303 35.1899 157.144 35.4517C156.985 35.7102 156.906 36.0052 156.906 36.3366V41H155.419ZM163.81 41.1541C163.058 41.1541 162.41 40.9934 161.866 40.6719C161.326 40.3471 160.908 39.8913 160.613 39.3047C160.322 38.7147 160.176 38.0237 160.176 37.2315C160.176 36.4493 160.322 35.7599 160.613 35.1634C160.908 34.5668 161.319 34.1011 161.846 33.7663C162.377 33.4316 162.996 33.2642 163.706 33.2642C164.136 33.2642 164.554 33.3355 164.958 33.478C165.363 33.6205 165.726 33.8442 166.047 34.1491C166.369 34.4541 166.622 34.8501 166.808 35.3374C166.993 35.8213 167.086 36.4096 167.086 37.1023V37.6293H161.016V36.5156H165.63C165.63 36.1245 165.55 35.7782 165.391 35.4766C165.232 35.1716 165.008 34.9313 164.72 34.7557C164.435 34.58 164.1 34.4922 163.716 34.4922C163.298 34.4922 162.933 34.5949 162.622 34.8004C162.314 35.0026 162.075 35.2678 161.906 35.5959C161.74 35.9207 161.657 36.2737 161.657 36.6548V37.5249C161.657 38.0353 161.747 38.4695 161.926 38.8274C162.108 39.1854 162.362 39.4588 162.686 39.6477C163.011 39.8333 163.391 39.9261 163.825 39.9261C164.107 39.9261 164.364 39.8864 164.596 39.8068C164.828 39.724 165.028 39.6013 165.197 39.4389C165.366 39.2765 165.495 39.076 165.585 38.8374L166.992 39.0909C166.879 39.5052 166.677 39.8681 166.385 40.1797C166.097 40.4879 165.734 40.7282 165.297 40.9006C164.862 41.0696 164.367 41.1541 163.81 41.1541Z" fill="#404040"/>
<rect width="375" height="72" transform="translate(0 72)" fill="white"/>
<rect x="33" y="72" width="2" height="18" fill="#E5E5E5"/>
<path d="M29.8608 114V112.977L33.7017 108.773C34.1525 108.28 34.5237 107.852 34.8153 107.489C35.107 107.121 35.3229 106.777 35.4631 106.455C35.607 106.129 35.679 105.788 35.679 105.432C35.679 105.023 35.5805 104.669 35.3835 104.369C35.1903 104.07 34.9252 103.839 34.5881 103.676C34.2509 103.513 33.8722 103.432 33.4517 103.432C33.0047 103.432 32.6146 103.525 32.2812 103.71C31.9517 103.892 31.696 104.148 31.5142 104.477C31.3362 104.807 31.2472 105.193 31.2472 105.636H29.9062C29.9062 104.955 30.0634 104.356 30.3778 103.841C30.6922 103.326 31.1203 102.924 31.6619 102.636C32.2074 102.348 32.8191 102.205 33.4972 102.205C34.179 102.205 34.7831 102.348 35.3097 102.636C35.8362 102.924 36.2491 103.312 36.5483 103.801C36.8475 104.29 36.9972 104.833 36.9972 105.432C36.9972 105.86 36.9195 106.278 36.7642 106.688C36.6127 107.093 36.3475 107.545 35.9688 108.045C35.5938 108.542 35.0729 109.148 34.4062 109.864L31.7926 112.659V112.75H37.2017V114H29.8608Z" fill="#737373"/>
<rect x="17" y="91" width="34" height="34" rx="17" stroke="#E5E5E5" stroke-width="2"/>
<path d="M68.6165 104.141V102.818H76.4964V104.141H73.3196V113H71.7884V104.141H68.6165ZM80.3022 113.154C79.5498 113.154 78.9019 112.993 78.3583 112.672C77.8181 112.347 77.4004 111.891 77.1055 111.305C76.8138 110.715 76.668 110.024 76.668 109.232C76.668 108.449 76.8138 107.76 77.1055 107.163C77.4004 106.567 77.8114 106.101 78.3384 105.766C78.8687 105.432 79.4885 105.264 80.1978 105.264C80.6287 105.264 81.0463 105.335 81.4506 105.478C81.855 105.621 82.2179 105.844 82.5394 106.149C82.8609 106.454 83.1145 106.85 83.3001 107.337C83.4857 107.821 83.5785 108.41 83.5785 109.102V109.629H77.5082V108.516H82.1218C82.1218 108.125 82.0423 107.778 81.8832 107.477C81.7241 107.172 81.5004 106.931 81.212 106.756C80.927 106.58 80.5922 106.492 80.2077 106.492C79.7901 106.492 79.4255 106.595 79.114 106.8C78.8058 107.003 78.5671 107.268 78.3981 107.596C78.2324 107.921 78.1495 108.274 78.1495 108.655V109.525C78.1495 110.035 78.239 110.469 78.418 110.827C78.6003 111.185 78.8538 111.459 79.1786 111.648C79.5034 111.833 79.8829 111.926 80.3171 111.926C80.5988 111.926 80.8557 111.886 81.0877 111.807C81.3197 111.724 81.5202 111.601 81.6893 111.439C81.8583 111.277 81.9876 111.076 82.0771 110.837L83.484 111.091C83.3713 111.505 83.1692 111.868 82.8775 112.18C82.5891 112.488 82.2262 112.728 81.7887 112.901C81.3545 113.07 80.859 113.154 80.3022 113.154ZM87.4501 113.169C86.9662 113.169 86.5287 113.08 86.1376 112.901C85.7465 112.718 85.4366 112.455 85.2079 112.11C84.9825 111.765 84.8699 111.343 84.8699 110.842C84.8699 110.411 84.9527 110.057 85.1184 109.778C85.2842 109.5 85.5079 109.28 85.7896 109.117C86.0713 108.955 86.3862 108.832 86.7342 108.749C87.0822 108.666 87.4368 108.603 87.7981 108.56C88.2555 108.507 88.6267 108.464 88.9118 108.431C89.1968 108.395 89.4039 108.337 89.5332 108.257C89.6625 108.178 89.7271 108.048 89.7271 107.869V107.835C89.7271 107.4 89.6045 107.064 89.3592 106.825C89.1172 106.587 88.756 106.467 88.2754 106.467C87.7749 106.467 87.3805 106.578 87.0922 106.8C86.8071 107.019 86.6099 107.263 86.5005 107.531L85.1035 107.213C85.2692 106.749 85.5112 106.375 85.8294 106.089C86.1509 105.801 86.5204 105.592 86.938 105.463C87.3556 105.33 87.7948 105.264 88.2555 105.264C88.5604 105.264 88.8836 105.301 89.225 105.374C89.5697 105.443 89.8912 105.572 90.1895 105.761C90.4911 105.95 90.738 106.22 90.9302 106.572C91.1225 106.92 91.2186 107.372 91.2186 107.929V113H89.7669V111.956H89.7072C89.6111 112.148 89.4669 112.337 89.2747 112.523C89.0824 112.708 88.8355 112.862 88.5339 112.985C88.2323 113.108 87.871 113.169 87.4501 113.169ZM87.7733 111.976C88.1842 111.976 88.5356 111.895 88.8272 111.732C89.1222 111.57 89.3459 111.358 89.4984 111.096C89.6542 110.831 89.7321 110.547 89.7321 110.246V109.261C89.679 109.314 89.5763 109.364 89.4238 109.411C89.2747 109.454 89.104 109.492 88.9118 109.525C88.7195 109.555 88.5323 109.583 88.35 109.609C88.1677 109.633 88.0152 109.652 87.8926 109.669C87.6042 109.705 87.3407 109.767 87.1021 109.853C86.8668 109.939 86.6779 110.063 86.5353 110.226C86.3961 110.385 86.3265 110.597 86.3265 110.862C86.3265 111.23 86.4624 111.509 86.7342 111.697C87.006 111.883 87.3523 111.976 87.7733 111.976ZM93.1985 113V105.364H94.6254V106.607H94.7198C94.8789 106.186 95.1391 105.857 95.5004 105.622C95.8616 105.384 96.2942 105.264 96.7979 105.264C97.3084 105.264 97.7359 105.384 98.0806 105.622C98.4286 105.861 98.6855 106.189 98.8512 106.607H98.9308C99.113 106.199 99.4031 105.874 99.8008 105.632C100.199 105.387 100.672 105.264 101.223 105.264C101.915 105.264 102.48 105.481 102.918 105.915C103.359 106.35 103.579 107.004 103.579 107.879V113H102.093V108.018C102.093 107.501 101.952 107.127 101.67 106.895C101.388 106.663 101.052 106.547 100.661 106.547C100.177 106.547 99.8008 106.696 99.5323 106.994C99.2638 107.289 99.1296 107.669 99.1296 108.133V113H97.6481V107.924C97.6481 107.51 97.5188 107.177 97.2603 106.925C97.0018 106.673 96.6654 106.547 96.2511 106.547C95.9693 106.547 95.7092 106.621 95.4705 106.771C95.2352 106.916 95.0446 107.12 94.8988 107.382C94.7563 107.644 94.685 107.947 94.685 108.292V113H93.1985ZM109.277 113V105.364H110.703V106.607H110.798C110.957 106.186 111.217 105.857 111.578 105.622C111.94 105.384 112.372 105.264 112.876 105.264C113.386 105.264 113.814 105.384 114.159 105.622C114.507 105.861 114.764 106.189 114.929 106.607H115.009C115.191 106.199 115.481 105.874 115.879 105.632C116.277 105.387 116.751 105.264 117.301 105.264C117.993 105.264 118.559 105.481 118.996 105.915C119.437 106.35 119.657 107.004 119.657 107.879V113H118.171V108.018C118.171 107.501 118.03 107.127 117.748 106.895C117.467 106.663 117.13 106.547 116.739 106.547C116.255 106.547 115.879 106.696 115.61 106.994C115.342 107.289 115.208 107.669 115.208 108.133V113H113.726V107.924C113.726 107.51 113.597 107.177 113.338 106.925C113.08 106.673 112.743 106.547 112.329 106.547C112.047 106.547 111.787 106.621 111.549 106.771C111.313 106.916 111.123 107.12 110.977 107.382C110.834 107.644 110.763 107.947 110.763 108.292V113H109.277ZM124.941 113.154C124.189 113.154 123.541 112.993 122.997 112.672C122.457 112.347 122.039 111.891 121.744 111.305C121.452 110.715 121.307 110.024 121.307 109.232C121.307 108.449 121.452 107.76 121.744 107.163C122.039 106.567 122.45 106.101 122.977 105.766C123.507 105.432 124.127 105.264 124.836 105.264C125.267 105.264 125.685 105.335 126.089 105.478C126.494 105.621 126.857 105.844 127.178 106.149C127.5 106.454 127.753 106.85 127.939 107.337C128.124 107.821 128.217 108.41 128.217 109.102V109.629H122.147V108.516H126.76C126.76 108.125 126.681 107.778 126.522 107.477C126.363 107.172 126.139 106.931 125.851 106.756C125.566 106.58 125.231 106.492 124.846 106.492C124.429 106.492 124.064 106.595 123.753 106.8C123.444 107.003 123.206 107.268 123.037 107.596C122.871 107.921 122.788 108.274 122.788 108.655V109.525C122.788 110.035 122.878 110.469 123.057 110.827C123.239 111.185 123.492 111.459 123.817 111.648C124.142 111.833 124.522 111.926 124.956 111.926C125.238 111.926 125.494 111.886 125.726 111.807C125.958 111.724 126.159 111.601 126.328 111.439C126.497 111.277 126.626 111.076 126.716 110.837L128.123 111.091C128.01 111.505 127.808 111.868 127.516 112.18C127.228 112.488 126.865 112.728 126.427 112.901C125.993 113.07 125.498 113.154 124.941 113.154ZM129.866 113V105.364H131.293V106.607H131.388C131.547 106.186 131.807 105.857 132.168 105.622C132.53 105.384 132.962 105.264 133.466 105.264C133.976 105.264 134.404 105.384 134.749 105.622C135.097 105.861 135.353 106.189 135.519 106.607H135.599C135.781 106.199 136.071 105.874 136.469 105.632C136.866 105.387 137.34 105.264 137.891 105.264C138.583 105.264 139.148 105.481 139.586 105.915C140.027 106.35 140.247 107.004 140.247 107.879V113H138.761V108.018C138.761 107.501 138.62 107.127 138.338 106.895C138.056 106.663 137.72 106.547 137.329 106.547C136.845 106.547 136.469 106.696 136.2 106.994C135.932 107.289 135.798 107.669 135.798 108.133V113H134.316V107.924C134.316 107.51 134.187 107.177 133.928 106.925C133.67 106.673 133.333 106.547 132.919 106.547C132.637 106.547 132.377 106.621 132.138 106.771C131.903 106.916 131.713 107.12 131.567 107.382C131.424 107.644 131.353 107.947 131.353 108.292V113H129.866ZM142.359 113V102.818H143.845V106.602H143.935C144.021 106.442 144.145 106.259 144.308 106.05C144.47 105.841 144.695 105.659 144.984 105.503C145.272 105.344 145.653 105.264 146.127 105.264C146.744 105.264 147.294 105.42 147.778 105.732C148.262 106.043 148.641 106.492 148.916 107.079C149.195 107.665 149.334 108.371 149.334 109.197C149.334 110.022 149.196 110.73 148.921 111.32C148.646 111.906 148.268 112.359 147.788 112.677C147.307 112.992 146.759 113.149 146.142 113.149C145.678 113.149 145.299 113.071 145.004 112.915C144.712 112.76 144.483 112.577 144.318 112.369C144.152 112.16 144.024 111.974 143.935 111.812H143.811V113H142.359ZM143.816 109.182C143.816 109.719 143.893 110.189 144.049 110.594C144.205 110.998 144.43 111.315 144.725 111.543C145.02 111.769 145.382 111.881 145.809 111.881C146.253 111.881 146.624 111.764 146.923 111.528C147.221 111.29 147.446 110.967 147.599 110.559C147.755 110.151 147.833 109.692 147.833 109.182C147.833 108.678 147.756 108.226 147.604 107.825C147.455 107.424 147.229 107.107 146.928 106.875C146.629 106.643 146.257 106.527 145.809 106.527C145.378 106.527 145.014 106.638 144.715 106.86C144.42 107.082 144.197 107.392 144.044 107.79C143.892 108.187 143.816 108.652 143.816 109.182ZM154.294 113.154C153.542 113.154 152.894 112.993 152.35 112.672C151.81 112.347 151.393 111.891 151.098 111.305C150.806 110.715 150.66 110.024 150.66 109.232C150.66 108.449 150.806 107.76 151.098 107.163C151.393 106.567 151.804 106.101 152.331 105.766C152.861 105.432 153.481 105.264 154.19 105.264C154.621 105.264 155.038 105.335 155.443 105.478C155.847 105.621 156.21 105.844 156.532 106.149C156.853 106.454 157.107 106.85 157.292 107.337C157.478 107.821 157.571 108.41 157.571 109.102V109.629H151.5V108.516H156.114C156.114 108.125 156.034 107.778 155.875 107.477C155.716 107.172 155.493 106.931 155.204 106.756C154.919 106.58 154.584 106.492 154.2 106.492C153.782 106.492 153.418 106.595 153.106 106.8C152.798 107.003 152.559 107.268 152.39 107.596C152.225 107.921 152.142 108.274 152.142 108.655V109.525C152.142 110.035 152.231 110.469 152.41 110.827C152.592 111.185 152.846 111.459 153.171 111.648C153.496 111.833 153.875 111.926 154.309 111.926C154.591 111.926 154.848 111.886 155.08 111.807C155.312 111.724 155.512 111.601 155.681 111.439C155.85 111.277 155.98 111.076 156.069 110.837L157.476 111.091C157.364 111.505 157.161 111.868 156.87 112.18C156.581 112.488 156.218 112.728 155.781 112.901C155.347 113.07 154.851 113.154 154.294 113.154ZM159.22 113V105.364H160.657V106.577H160.736C160.876 106.166 161.121 105.843 161.472 105.607C161.827 105.369 162.228 105.249 162.675 105.249C162.768 105.249 162.877 105.253 163.003 105.259C163.133 105.266 163.234 105.274 163.307 105.284V106.706C163.247 106.689 163.141 106.671 162.988 106.651C162.836 106.628 162.684 106.616 162.531 106.616C162.18 106.616 161.867 106.691 161.591 106.84C161.32 106.986 161.104 107.19 160.945 107.452C160.786 107.71 160.706 108.005 160.706 108.337V113H159.22Z" fill="#404040"/>
<defs>
<filter id="filter0_d_585_18100" x="12" y="14" width="44" height="44" filterUnits="userSpaceOnUse" color-interpolation-filters="sRGB">
<feFlood flood-opacity="0" result="BackgroundImageFix"/>
<feColorMatrix in="SourceAlpha" type="matrix" values="0 0 0 0 0 0 0 0 0 0 0 0 0 0 0 0 0 0 127 0" result="hardAlpha"/>
<feMorphology radius="4" operator="dilate" in="SourceAlpha" result="effect1_dropShadow_585_18100"/>
<feOffset/>
<feColorMatrix type="matrix" values="0 0 0 0 0.92902 0 0 0 0 0.901961 0 0 0 0 0.992157 0 0 0 1 0"/>
<feBlend mode="normal" in2="BackgroundImageFix" result="effect1_dropShadow_585_18100"/>
<feBlend mode="normal" in="SourceGraphic" in2="effect1_dropShadow_585_18100" result="shape"/>
</filter>
</defs>
</svg>
