<svg width="20" height="20" viewBox="0 0 20 20" fill="none" xmlns="http://www.w3.org/2000/svg">
<path d="M4.9998 18.9584C4.7498 18.9584 4.48313 18.9334 4.21646 18.8834C4.07479 18.8501 3.94979 18.8167 3.82479 18.7834C3.68313 18.7417 3.54978 18.6917 3.42478 18.6417C3.39145 18.6334 3.36647 18.6167 3.34147 18.6084C3.0498 18.4584 2.79979 18.3084 2.57479 18.1417C2.55813 18.1334 2.5498 18.1167 2.53314 18.1084C2.40814 18.0084 2.29146 17.9084 2.18313 17.7917C2.06646 17.6667 1.98312 17.5667 1.89145 17.4667C1.69979 17.2167 1.54146 16.9667 1.39979 16.675C1.38312 16.65 1.37481 16.6167 1.36648 16.5834C1.31648 16.4667 1.27479 16.3501 1.24146 16.2251C1.19146 16.0501 1.15812 15.9334 1.13312 15.8084C1.07478 15.5167 1.0498 15.2584 1.0498 15.0084V3.75838C1.0498 2.16672 2.16647 1.05005 3.75814 1.05005H6.25814C7.8498 1.05005 8.96647 2.16672 8.96647 3.75838V15.0001C8.96647 16.0334 8.56647 17.0167 7.84147 17.7584C7.70813 17.8917 7.60812 17.9834 7.51645 18.0584C7.24979 18.2917 6.90814 18.5001 6.54147 18.6501C6.45814 18.6834 6.35813 18.7251 6.2498 18.7667C5.84146 18.8917 5.41646 18.9584 4.9998 18.9584ZM3.94979 17.5001C4.03312 17.5334 4.11647 17.5584 4.1998 17.5834C4.29147 17.6084 4.38313 17.6334 4.47479 17.6584C4.93313 17.7417 5.42481 17.7167 5.81647 17.5834C5.87481 17.5584 5.95812 17.5334 6.03312 17.5001C6.29979 17.3917 6.51645 17.2584 6.70812 17.1001C6.79145 17.0334 6.8498 16.975 6.90814 16.925C7.43314 16.3834 7.70813 15.7167 7.70813 15.0084V3.75838C7.70813 2.85838 7.1498 2.30005 6.2498 2.30005H3.7498C2.8498 2.30005 2.29146 2.85838 2.29146 3.75838V15.0001C2.29146 15.1751 2.30814 15.3584 2.3498 15.5501C2.36647 15.6251 2.39146 15.7167 2.41646 15.8167C2.44979 15.9084 2.4748 15.9834 2.50814 16.0667C2.5248 16.0917 2.53312 16.1167 2.54145 16.1334C2.54979 16.1501 2.55812 16.175 2.56645 16.1917C2.66645 16.375 2.76647 16.5334 2.87481 16.675C2.93314 16.7417 3.00814 16.825 3.08314 16.9084C3.17481 17.0084 3.2498 17.0667 3.33313 17.1334C3.34146 17.1417 3.35814 17.15 3.36647 17.1584C3.4998 17.2584 3.64979 17.35 3.82479 17.4417C3.84146 17.45 3.85812 17.45 3.87479 17.4584C3.89146 17.4667 3.91646 17.4834 3.94979 17.5001Z" fill="#7E848E"/>
<path d="M16.25 18.9584H5C4.65833 18.9584 4.375 18.6751 4.375 18.3334C4.375 17.9917 4.65833 17.7084 5 17.7084C5.29167 17.7084 5.57501 17.6667 5.81668 17.5834C5.87501 17.5584 5.95833 17.5334 6.03333 17.5001C6.29999 17.3917 6.51666 17.2584 6.70832 17.1001C6.79166 17.0334 6.85001 16.9751 6.90834 16.9251L12.6083 11.2334C12.725 11.1167 12.8833 11.05 13.05 11.05H16.25C17.8417 11.05 18.9583 12.1667 18.9583 13.7584V16.2584C18.9583 17.8417 17.8417 18.9584 16.25 18.9584ZM7.88333 17.7084H16.25C17.15 17.7084 17.7083 17.1501 17.7083 16.2501V13.7501C17.7083 12.8501 17.15 12.2917 16.25 12.2917H13.3083L7.88333 17.7084Z" fill="#7E848E"/>
<path d="M4.00852 18.8084C3.95019 18.8084 3.89186 18.8001 3.83353 18.7834C3.21686 18.6001 2.6502 18.2584 2.2002 17.8001C1.7502 17.3584 1.40852 16.7918 1.22519 16.1751C1.12519 15.8418 1.30852 15.5001 1.64186 15.4001C1.97519 15.3001 2.31686 15.4834 2.42519 15.8084C2.69186 16.6584 3.35851 17.3251 4.20851 17.5918C4.53351 17.6918 4.71686 18.0418 4.61686 18.3751C4.5252 18.6334 4.27519 18.8084 4.00852 18.8084Z" fill="#7E848E"/>
<path d="M7.38329 17.9499C7.22496 17.9499 7.06663 17.8916 6.94163 17.7666C6.69996 17.5249 6.69164 17.1333 6.93331 16.8833C7.43331 16.3749 7.7083 15.6999 7.7083 14.9916V6.94161C7.7083 6.77494 7.77497 6.61661 7.89164 6.49994L10.15 4.2416C11.2416 3.14993 12.8916 3.14993 13.9833 4.2416L15.75 6.00828C16.875 7.13328 16.875 8.7166 15.75 9.8416L7.82498 17.7583C7.69998 17.8916 7.54163 17.9499 7.38329 17.9499ZM8.9583 7.20827V14.8666L14.8666 8.9666C15.5 8.33327 15.5 7.5416 14.8666 6.89994L13.1 5.13327C12.475 4.50827 11.6583 4.50827 11.0333 5.13327L8.9583 7.20827Z" fill="#7E848E"/>
<path d="M5.00002 16.4584C4.20002 16.4584 3.54169 15.8001 3.54169 15.0001C3.54169 14.2001 4.20002 13.5417 5.00002 13.5417C5.80002 13.5417 6.45835 14.2001 6.45835 15.0001C6.45835 15.8001 5.80002 16.4584 5.00002 16.4584ZM5.00002 14.7917C4.88335 14.7917 4.79169 14.8834 4.79169 15.0001C4.79169 15.2334 5.20835 15.2334 5.20835 15.0001C5.20835 14.8834 5.11669 14.7917 5.00002 14.7917Z" fill="#7E848E"/>
</svg>
